# File created by Blade
# Date/Time:  Tue Sep 30 19:33:40 2014
#---------------------------------------------------------
:version 1.10
:name HOM
:units
  mass 1.0
  length 1.000000
  angle deg
:documentation
     Acclaim Skeleton File
:root
   axis xyz
   order TX TY TZ RX RY RZ
   position 0.000000 0.000000 0.000000
   orientation 0 0 0
:bonedata
   begin
      id 1
      name Spine_dum
      direction 0.000000 1.000000 0.000000
      length 3.241213
      axis 0.0 0.0 0.0 xyz
   end
   begin
      id 2
      name LeftUpLeg_dum
      direction 1.000000 0.000000 0.000000
      length 3.434019
      axis 0.0 0.0 0.0 xyz
   end
   begin
      id 3
      name RightUpLeg_dum
      direction -1.000000 0.000000 0.000000
      length 3.434019
      axis 0.0 0.0 0.0 xyz
   end
   begin
      id 4
      name Spine
      direction 0.000000 1.000000 0.000000
      length 0.000000
      axis 0.0 0.0 0.0 xyz
      dof rx ry rz
   end
   begin
      id 5
      name Spine_dum1
      direction 0.000000 1.000000 0.000000
      length 18.382958
      axis 0.0 0.0 0.0 xyz
   end
   begin
      id 6
      name Spine_dum2
      direction 0.000000 1.000000 0.000000
      length 12.828261
      axis 0.0 0.0 0.0 xyz
   end
   begin
      id 7
      name Spine_dum3
      direction 0.000000 1.000000 0.000000
      length 12.828261
      axis 0.0 0.0 0.0 xyz
   end
   begin
      id 8
      name Head
      direction 0.000000 1.000000 0.000000
      length 4.527550
      axis 0.0 0.0 0.0 xyz
      dof rx ry rz
   end
   begin
      id 9
      name LeftShoulder
      direction 1.000000 0.000000 0.000000
      length 7.748055
      axis 0.0 0.0 -90.0 xyz
      dof rx ry rz
   end
   begin
      id 10
      name LeftArm
      direction 1.000000 0.000000 0.000000
      length 10.635614
      axis 0.0 0.0 -90.0 xyz
      dof rx ry rz
   end
   begin
      id 11
      name LeftForeArm
      direction 1.000000 0.000000 0.000000
      length 8.346755
      axis 0.0 0.0 -90.0 xyz
      dof ry rz rx
   end
   begin
      id 12
      name LeftHand
      direction 0.000000 0.000000 0.000000
      length 0.000000
      axis 0.0 0.0 -90.0 xyz
      dof rx ry rz
   end
   begin
      id 13
      name LeftHand_dum1
      direction 0.000000 0.000000 0.000000
      length 0.000000
      axis 0.0 0.0 -90.0 xyz
   end
   begin
      id 14
      name LeftHand_dum2
      direction 1.000000 0.000000 0.000000
      length 3.937000
      axis 0.0 0.0 -90.0 xyz
   end
   begin
      id 15
      name LeftHandThumb1
      direction 0.000000 0.000000 1.000000
      length 3.937000
      axis 0.0 0.0 -90.0 xyz
      dof rx rz ry
   end
   begin
      id 16
      name RightShoulder
      direction -1.000000 0.000000 0.000000
      length 7.748055
      axis 0.0 0.0 90.0 xyz
      dof rx ry rz
   end
   begin
      id 17
      name RightArm
      direction -1.000000 0.000000 0.000000
      length 10.635614
      axis 0.0 0.0 90.0 xyz
      dof rx ry rz
   end
   begin
      id 18
      name RightForeArm
      direction -1.000000 0.000000 0.000000
      length 8.346755
      axis 0.0 0.0 90.0 xyz
      dof ry rz rx
   end
   begin
      id 19
      name RightHand
      direction 0.000000 0.000000 0.000000
      length 0.000000
      axis 0.0 0.0 90.0 xyz
      dof rx ry rz
   end
   begin
      id 20
      name RightHand_dum1
      direction 0.000000 0.000000 0.000000
      length 0.000000
      axis 0.0 0.0 90.0 xyz
   end
   begin
      id 21
      name RightHand_dum2
      direction -1.000000 0.000000 0.000000
      length 3.937000
      axis 0.0 0.0 90.0 xyz
   end
   begin
      id 22
      name RightHandThumb1
      direction 0.000000 0.000000 1.000000
      length 3.937000
      axis 0.0 0.0 90.0 xyz
      dof rx rz ry
   end
   begin
      id 23
      name LeftUpLeg
      direction 0.000000 -1.000000 0.000000
      length 15.713025
      axis 0.0 0.0 0.0 xyz
      dof rx ry rz
   end
   begin
      id 24
      name LeftLeg
      direction 0.000000 -1.000000 0.000000
      length 14.435119
      axis 0.0 0.0 0.0 xyz
      dof rx ry rz
   end
   begin
      id 25
      name LeftFoot
      direction 0.000000 -0.258819 0.965926
      length 4.938895
      axis 15.0 0.0 0.0 xyz
      dof rx ry rz
   end
   begin
      id 26
      name LeftToeBase
      direction 0.000000 0.000000 1.000000
      length 2.952750
      axis 0.0 0.0 0.0 xyz
      dof rx ry rz
   end
   begin
      id 27
      name RightUpLeg
      direction 0.000000 -1.000000 0.000000
      length 15.713025
      axis 0.0 0.0 0.0 xyz
      dof rx ry rz
   end
   begin
      id 28
      name RightLeg
      direction 0.000000 -1.000000 0.000000
      length 14.435119
      axis 0.0 0.0 0.0 xyz
      dof rx ry rz
   end
   begin
      id 29
      name RightFoot
      direction 0.000000 -0.258819 0.965926
      length 4.938895
      axis 15.0 0.0 0.0 xyz
      dof rx ry rz
   end
   begin
      id 30
      name RightToeBase
      direction 0.000000 0.000000 1.000000
      length 2.952750
      axis 0.0 0.0 0.0 xyz
      dof rx ry rz
   end
:hierarchy
   begin
      root Spine_dum LeftUpLeg_dum RightUpLeg_dum
      Spine_dum Spine
      LeftUpLeg_dum LeftUpLeg
      RightUpLeg_dum RightUpLeg
      Spine Spine_dum1 Spine_dum2 Spine_dum3
      Spine_dum1 Head
      Spine_dum2 LeftShoulder
      Spine_dum3 RightShoulder
      LeftShoulder LeftArm
      LeftArm LeftForeArm
      LeftForeArm LeftHand
      LeftHand LeftHand_dum1 LeftHand_dum2
      LeftHand_dum1 LeftHandThumb1
      RightShoulder RightArm
      RightArm RightForeArm
      RightForeArm RightHand
      RightHand RightHand_dum1 RightHand_dum2
      RightHand_dum1 RightHandThumb1
      LeftUpLeg LeftLeg
      LeftLeg LeftFoot
      LeftFoot LeftToeBase
      RightUpLeg RightLeg
      RightLeg RightFoot
      RightFoot RightToeBase
   end

# File created by Blade
# Date/Time:  Mon Sep 22 21:09:19 2014
# Frame Rate: 120.000 fps
#------------------------------------------------------
:FULLY-SPECIFIED
:DEGREES
565
root -1.623956 32.955792 -3.479673 -3.639263 56.297318 -32.672871
Spine -30.691122 -5.152831 17.723346
Head 3.736539 3.625484 4.228560
LeftShoulder -7.287836 45.129163 19.706408
LeftArm 78.616571 29.240733 -41.236991
LeftForeArm -26.073249 0.000000 88.483672
LeftHand -18.832751 -0.000000 -5.119797
LeftHandThumb1 -26.253704 0.000000 33.147579
RightShoulder -7.239943 -46.956002 -16.707638
RightArm 73.086073 -18.257793 42.554389
RightForeArm 64.814919 -0.000000 77.440513
RightHand 0.198959 -0.000000 26.380625
RightHandThumb1 -24.326973 -0.000000 -32.862282
LeftUpLeg -33.160297 7.329750 11.546395
LeftLeg 22.433312 -0.000000 -0.000000
LeftFoot -14.320868 1.577057 5.337158
LeftToeBase 0.360583 -0.000000 -0.000000
RightUpLeg -161.125054 7.538129 10.179612
RightLeg 107.249854 -0.000000 -0.000000
RightFoot 42.344658 -16.149482 10.946223
RightToeBase 46.242733 -0.000000 -0.000000
566
root -1.646851 32.956048 -3.496611 -3.221151 56.213055 -32.409487
Spine -30.674620 -5.153490 17.706132
Head 3.439072 3.847714 4.127375
LeftShoulder -7.368229 45.155155 19.616843
LeftArm 78.587510 29.174353 -41.176267
LeftForeArm -25.955326 -0.000000 88.508772
LeftHand -18.822751 -0.000000 -5.044050
LeftHandThumb1 -26.253704 0.000000 33.147579
RightShoulder -7.148227 -46.818308 -16.798305
RightArm 73.146395 -18.429312 42.544490
RightForeArm 64.569701 -0.000000 77.325512
RightHand 0.435021 -0.000000 26.396997
RightHandThumb1 -24.326973 -0.000000 -32.862282
LeftUpLeg -33.262701 7.291379 11.415529
LeftLeg 22.210877 -0.000000 -0.000000
LeftFoot -14.091570 1.841496 5.821005
LeftToeBase -0.096434 -0.000000 0.000000
RightUpLeg -161.114687 7.678047 10.108817
RightLeg 106.093824 -0.000000 -0.000000
RightFoot 42.010208 -16.569029 10.979786
RightToeBase 46.167193 -0.000000 -0.000000
567
root -1.668868 32.954078 -3.514288 -2.775429 56.147332 -32.160146
Spine -30.731913 -5.156279 17.706901
Head 3.223591 4.054809 4.023563
LeftShoulder -7.438289 45.202756 19.538636
LeftArm 78.537139 29.107573 -41.186558
LeftForeArm -25.810994 0.000000 88.557372
LeftHand -18.839727 -0.000000 -4.950027
LeftHandThumb1 -26.253704 0.000000 33.147579
RightShoulder -7.064155 -46.709036 -16.884461
RightArm 73.222813 -18.545190 42.539588
RightForeArm 64.441515 -0.000000 77.210855
RightHand 0.601554 -0.000000 26.509165
RightHandThumb1 -24.326973 -0.000000 -32.862282
LeftUpLeg -33.415760 7.195886 11.298267
LeftLeg 22.003613 -0.000000 -0.000000
LeftFoot -13.873554 2.157128 6.262938
LeftToeBase -0.525190 -0.000000 0.000000
RightUpLeg -161.162768 7.849012 10.057534
RightLeg 104.939826 -0.000000 -0.000000
RightFoot 41.798861 -17.172295 11.023394
RightToeBase 46.116189 -0.000000 -0.000000
568
root -1.684740 32.950351 -3.533462 -2.382495 56.086046 -31.902207
Spine -30.747375 -5.176667 17.718201
Head 3.057400 4.285849 3.907750
LeftShoulder -7.540514 45.244771 19.403398
LeftArm 78.471405 29.050642 -41.236132
LeftForeArm -25.675753 -0.000000 88.595965
LeftHand -18.863792 -0.000000 -4.743158
LeftHandThumb1 -26.253704 0.000000 33.147579
RightShoulder -6.978988 -46.669132 -16.955897
RightArm 73.344639 -18.577588 42.509940
RightForeArm 64.336112 0.000000 77.117050
RightHand 0.665835 -0.000000 26.529115
RightHandThumb1 -24.326973 -0.000000 -32.862282
LeftUpLeg -33.512349 7.060087 11.181933
LeftLeg 21.816466 -0.000000 -0.000000
LeftFoot -13.692504 2.483891 6.673361
LeftToeBase -0.827351 -0.000000 0.000000
RightUpLeg -161.180205 8.023849 10.065227
RightLeg 103.890183 -0.000000 -0.000000
RightFoot 41.472818 -17.758385 11.156357
RightToeBase 46.210223 -0.000000 -0.000000
569
root -1.696177 32.945608 -3.551616 -2.073901 56.004767 -31.662517
Spine -30.687981 -5.164497 17.718305
Head 2.873170 4.505667 3.813252
LeftShoulder -7.674443 45.258436 19.235807
LeftArm 78.466491 29.012294 -41.243091
LeftForeArm -25.631557 -0.000000 88.578618
LeftHand -19.026157 -0.000000 -4.915172
LeftHandThumb1 -26.253704 0.000000 33.147579
RightShoulder -6.973019 -46.643651 -16.936383
RightArm 73.442062 -18.583178 42.481980
RightForeArm 64.197980 -0.000000 77.028862
RightHand 0.759496 -0.000000 26.696461
RightHandThumb1 -24.326973 -0.000000 -32.862282
LeftUpLeg -33.543328 6.889892 11.094754
LeftLeg 21.658578 -0.000000 -0.000000
LeftFoot -13.513875 2.899170 7.119321
LeftToeBase -1.097626 -0.000000 0.000000
RightUpLeg -161.134770 8.215340 10.079909
RightLeg 102.908360 -0.000000 -0.000000
RightFoot 41.193524 -18.300974 11.347744
RightToeBase 46.079595 -0.000000 -0.000000
570
root -1.703545 32.939865 -3.572366 -1.739614 55.934476 -31.403089
Spine -30.662026 -5.127712 17.712364
Head 2.734560 4.718676 3.701334
LeftShoulder -7.769906 45.300471 19.098750
LeftArm 78.472107 28.967446 -41.274393
LeftForeArm -25.486120 -0.000000 88.594722
LeftHand -19.067672 0.000000 -4.745567
LeftHandThumb1 -26.253704 0.000000 33.147579
RightShoulder -6.975616 -46.634764 -16.926182
RightArm 73.514272 -18.585885 42.486970
RightForeArm 64.084285 -0.000000 76.947532
RightHand 0.835701 0.000000 26.812452
RightHandThumb1 -24.326973 -0.000000 -32.862282
LeftUpLeg -33.579670 6.608209 11.019797
LeftLeg 21.502994 -0.000000 -0.000000
LeftFoot -13.289881 3.472307 7.664847
LeftToeBase -1.434653 -0.000000 0.000000
RightUpLeg -161.114626 8.416586 10.131943
RightLeg 102.009671 -0.000000 -0.000000
RightFoot 40.895044 -18.809719 11.647919
RightToeBase 45.954214 -0.000000 -0.000000
